<svg xmlns="http://www.w3.org/2000/svg" version="1.1" xmlns:xlink="http://www.w3.org/1999/xlink" xmlns:svgjs="http://svgjs.com/svgjs" width="1440" height="560" preserveAspectRatio="none" viewBox="0 0 1440 560"><g mask="url(&quot;#SvgjsMask1188&quot;)" fill="none"><rect width="1440" height="560" x="0" y="0" fill="url(#SvgjsLinearGradient1189)"></rect><path d="M130.138,246.77C150.099,245.946,166.87,232.513,175.966,214.726C184.275,198.478,181.038,179.934,172.589,163.759C163.3,145.975,150.196,127.472,130.138,126.989C109.53,126.492,94.277,143.761,83.988,161.623C73.721,179.446,67.45,200.718,77.251,218.802C87.436,237.593,108.782,247.652,130.138,246.77" fill="rgba(255, 145, 2, 0.8)" class="triangle-float2"></path><path d="M829.313,646.128C860.606,647.824,888.526,628.461,905.016,601.811C922.513,573.535,931.209,537.664,914.056,509.178C897.29,481.334,861.815,475.945,829.313,476.089C797.142,476.232,760.941,481.506,745.865,509.926C731.317,537.351,750.382,567.84,766.601,594.312C781.784,619.094,800.293,644.556,829.313,646.128" fill="rgba(255, 145, 2, 0.8)" class="triangle-float1"></path><path d="M833.6819589301781 515.3631780982105L832.1587522435385 428.0987254649109 744.8942996102389 429.6219321515505 746.4175062968785 516.8863847848501z" fill="rgba(255, 145, 2, 0.8)" class="triangle-float2"></path><path d="M293.723,340.486C316.435,340.544,335.596,326.082,347.662,306.84C360.682,286.076,369.812,260.067,357.401,238.933C345.093,217.975,317.934,212.86,293.723,214.991C273.196,216.798,257.283,230.866,246.893,248.661C236.394,266.643,230.796,288.017,240.256,306.567C250.533,326.719,271.102,340.429,293.723,340.486" fill="rgba(255, 145, 2, 0.8)" class="triangle-float3"></path><path d="M1232.233,490.934C1272.042,487.721,1304.903,463.362,1325.321,429.038C1346.295,393.779,1354.748,351.794,1337.008,314.802C1316.655,272.361,1279.282,233.557,1232.233,234.927C1186.622,236.255,1160.503,281.192,1137.522,320.612C1114.291,360.462,1086.471,406.194,1108.888,446.507C1131.651,487.442,1185.547,494.702,1232.233,490.934" fill="rgba(255, 145, 2, 0.8)" class="triangle-float3"></path><path d="M1152.61 252.8 a102.04 102.04 0 1 0 204.08 0 a102.04 102.04 0 1 0 -204.08 0z" fill="rgba(255, 145, 2, 0.8)" class="triangle-float3"></path><path d="M199.519,512.581C234.618,510.511,263.922,490.51,283.535,461.329C306.384,427.334,330.23,384.646,309.086,349.565C288.247,314.99,239.852,320.203,199.519,321.936C163.412,323.488,125.571,328.523,105.135,358.33C82.029,392.032,75.057,437.513,96.384,472.368C117.025,506.102,160.04,514.91,199.519,512.581" fill="rgba(255, 145, 2, 0.8)" class="triangle-float2"></path><path d="M582.36,462.457C630.66,459.957,676.596,439.567,701.447,398.075C726.992,355.425,727.605,302.835,704.248,258.948C679.341,212.148,635.341,172.402,582.36,174.311C531.613,176.139,500.936,223.683,474.789,267.214C447.458,312.717,414.208,365.123,439.822,411.614C465.912,458.968,528.366,465.251,582.36,462.457" fill="rgba(255, 145, 2, 0.8)" class="triangle-float2"></path><path d="M1056.32 453.5 a186.09 186.09 0 1 0 372.18 0 a186.09 186.09 0 1 0 -372.18 0z" fill="rgba(255, 145, 2, 0.8)" class="triangle-float3"></path></g><defs><mask id="SvgjsMask1188"><rect width="1440" height="560" fill="#ffffff"></rect></mask><linearGradient x1="15.28%" y1="-39.29%" x2="84.72%" y2="139.29%" gradientUnits="userSpaceOnUse" id="SvgjsLinearGradient1189"><stop stop-color="rgba(68, 192, 196, 1)" offset="1"></stop><stop stop-color="rgba(68, 192, 196, 1)" offset="1"></stop></linearGradient><style>
            @keyframes float1 {
                0%{transform: translate(0, 0)}
                50%{transform: translate(-10px, 0)}
                100%{transform: translate(0, 0)}
            }

            .triangle-float1 {
                animation: float1 5s infinite;
            }

            @keyframes float2 {
                0%{transform: translate(0, 0)}
                50%{transform: translate(-5px, -5px)}
                100%{transform: translate(0, 0)}
            }

            .triangle-float2 {
                animation: float2 4s infinite;
            }

            @keyframes float3 {
                0%{transform: translate(0, 0)}
                50%{transform: translate(0, -10px)}
                100%{transform: translate(0, 0)}
            }

            .triangle-float3 {
                animation: float3 6s infinite;
            }
        </style></defs></svg>