<svg xmlns="http://www.w3.org/2000/svg" version="1.1" xmlns:xlink="http://www.w3.org/1999/xlink" xmlns:svgjs="http://svgjs.com/svgjs" width="1440" height="560" preserveAspectRatio="none" viewBox="0 0 1440 560"><g mask="url(&quot;#SvgjsMask1000&quot;)" fill="none"><rect width="1440" height="560" x="0" y="0" fill="#0e2a47"></rect><path d="M455.2901414805954 294.1103732777699L471.0366856017778 145.65314075798986 350.9080976814439 196.64470103699298z" fill="rgba(28, 83, 142, 0.4)" class="triangle-float1"></path><path d="M1453.7599411197739 359.8217228042271L1302.0134357879567 289.06116526974245 1231.252878253472 440.80767060155955 1382.9993835852893 511.5682281360442z" fill="rgba(28, 83, 142, 0.4)" class="triangle-float3"></path><path d="M256.14521954159477 236.8189771810662L220.39293583712322 138.5903850090952 122.16434366515219 174.34266871356675 157.91662736962377 272.57126088553775z" fill="rgba(28, 83, 142, 0.4)" class="triangle-float2"></path><path d="M1012.1317092812274 424.01909572898796L1131.1085188466177 313.0714259087336 1020.1608490263634 194.0946163433432 901.184039460973 305.0422861635975z" fill="rgba(28, 83, 142, 0.4)" class="triangle-float1"></path><path d="M804.876,66.338C819.684,66.331,828.919,52.392,836.716,39.803C845.157,26.173,855.406,10.729,848.18,-3.582C840.521,-18.751,821.858,-23.868,804.876,-23.259C789.017,-22.69,773.797,-14.819,766.638,-0.657C760.032,12.41,765.724,27.118,772.982,39.834C780.326,52.701,790.061,66.345,804.876,66.338" fill="rgba(28, 83, 142, 0.4)" class="triangle-float3"></path><path d="M585.8842328459036 275.90118985043904L585.8842328459036 191.50001367209325 459.2824685783849 233.70060176126617z" fill="rgba(28, 83, 142, 0.4)" class="triangle-float2"></path><path d="M1316.3,415.235C1332.786,415.288,1350.144,410.336,1358.232,395.971C1366.208,381.805,1361.761,364.229,1352.567,350.822C1344.558,339.142,1330.461,335.004,1316.3,334.822C1301.727,334.635,1286.588,337.826,1278.384,349.871C1269.139,363.445,1266.593,381.496,1274.833,395.702C1283.05,409.867,1299.924,415.182,1316.3,415.235" fill="rgba(28, 83, 142, 0.4)" class="triangle-float3"></path><path d="M648.323,506.235C674.155,505.292,694.018,485.619,706.201,462.821C717.603,441.485,720.224,415.822,707.702,395.123C695.564,375.058,671.746,368.279,648.323,367.143C622.079,365.87,592.456,366.859,578.049,388.832C562.645,412.325,568.203,443.227,582.631,467.332C596.64,490.736,621.065,507.23,648.323,506.235" fill="rgba(28, 83, 142, 0.4)" class="triangle-float2"></path><path d="M571.246,502.827C597.547,504.767,625.407,493.561,637.399,470.073C648.68,447.977,634.768,423.85,622.607,402.226C610.081,379.952,596.798,352.821,571.246,352.441C545.365,352.056,528.172,377.23,517.172,400.66C507.936,420.332,509.917,442.211,520.083,461.419C531.083,482.202,547.795,501.097,571.246,502.827" fill="rgba(28, 83, 142, 0.4)" class="triangle-float3"></path></g><defs><mask id="SvgjsMask1000"><rect width="1440" height="560" fill="#ffffff"></rect></mask><style>
            @keyframes float1 {
                0%{transform: translate(0, 0)}
                50%{transform: translate(-10px, 0)}
                100%{transform: translate(0, 0)}
            }

            .triangle-float1 {
                animation: float1 5s infinite;
            }

            @keyframes float2 {
                0%{transform: translate(0, 0)}
                50%{transform: translate(-5px, -5px)}
                100%{transform: translate(0, 0)}
            }

            .triangle-float2 {
                animation: float2 4s infinite;
            }

            @keyframes float3 {
                0%{transform: translate(0, 0)}
                50%{transform: translate(0, -10px)}
                100%{transform: translate(0, 0)}
            }

            .triangle-float3 {
                animation: float3 6s infinite;
            }
        </style></defs></svg>